# Blender 3.3.0
# www.blender.org
mtllib tablero.mtl
o Plane
v -3.513170 -0.000001 3.513170
v 3.513170 -0.000001 3.513170
v -3.513170 0.000001 -3.513170
v 3.513170 0.000001 -3.513170
v -3.960000 -0.244107 -3.960000
v -3.960000 -0.244109 3.960000
v 3.960000 -0.244109 3.960000
v 3.960000 -0.244107 -3.960000
v -3.600000 0.000001 -3.600000
v -3.600000 -0.000001 3.600000
v 3.600000 -0.000001 3.600000
v 3.600000 0.000001 -3.600000
v -3.552278 0.000001 -3.552278
v -3.552278 -0.000001 3.552278
v 3.552278 -0.000001 3.552278
v 3.552278 0.000001 -3.552278
v -3.552278 -0.091104 -3.552278
v -3.552278 -0.091106 3.552278
v 3.552278 -0.091106 3.552278
v 3.552278 -0.091104 -3.552278
v -3.513170 -0.091104 -3.513170
v -3.513170 -0.091106 3.513170
v 3.513170 -0.091106 3.513170
v 3.513170 -0.091104 -3.513170
v -3.513170 0.000000 -2.634877
v -3.513170 0.000000 -1.756585
v -3.513170 0.000000 -0.878292
v -3.513170 0.000000 0.000000
v -3.513170 -0.000000 0.878292
v -3.513170 -0.000000 1.756585
v -3.513170 -0.000000 2.634877
v -2.634877 -0.000001 3.513170
v -1.756585 -0.000001 3.513170
v -0.878292 -0.000001 3.513170
v 0.000000 -0.000001 3.513170
v 0.878292 -0.000001 3.513170
v 1.756585 -0.000001 3.513170
v 2.634877 -0.000001 3.513170
v 3.513170 -0.000000 2.634877
v 3.513170 -0.000000 1.756585
v 3.513170 -0.000000 0.878292
v 3.513170 0.000000 0.000000
v 3.513170 0.000000 -0.878292
v 3.513170 0.000000 -1.756585
v 3.513170 0.000000 -2.634877
v 2.634877 0.000001 -3.513170
v 1.756585 0.000001 -3.513170
v 0.878292 0.000001 -3.513170
v 0.000000 0.000001 -3.513170
v -0.878292 0.000001 -3.513170
v -1.756585 0.000001 -3.513170
v -2.634877 0.000001 -3.513170
v -2.634877 -0.000000 2.634877
v -1.756585 -0.000000 2.634877
v -0.878292 -0.000000 2.634877
v 0.000000 -0.000000 2.634877
v 0.878292 -0.000000 2.634877
v 1.756585 -0.000000 2.634877
v 2.634877 -0.000000 2.634877
v -2.634877 -0.000000 1.756585
v -1.756585 -0.000000 1.756585
v -0.878292 -0.000000 1.756585
v 0.000000 -0.000000 1.756585
v 0.878292 -0.000000 1.756585
v 1.756585 -0.000000 1.756585
v 2.634877 -0.000000 1.756585
v -2.634877 -0.000000 0.878292
v -1.756585 -0.000000 0.878292
v -0.878292 -0.000000 0.878292
v 0.000000 -0.000000 0.878292
v 0.878292 -0.000000 0.878292
v 1.756585 -0.000000 0.878292
v 2.634877 -0.000000 0.878292
v -2.634877 0.000000 0.000000
v -1.756585 0.000000 0.000000
v -0.878292 0.000000 0.000000
v 0.000000 0.000000 0.000000
v 0.878292 0.000000 0.000000
v 1.756585 0.000000 0.000000
v 2.634877 0.000000 0.000000
v -2.634877 0.000000 -0.878292
v -1.756585 0.000000 -0.878292
v -0.878292 0.000000 -0.878292
v 0.000000 0.000000 -0.878292
v 0.878292 0.000000 -0.878292
v 1.756585 0.000000 -0.878292
v 2.634877 0.000000 -0.878292
v -2.634877 0.000000 -1.756585
v -1.756585 0.000000 -1.756585
v -0.878292 0.000000 -1.756585
v 0.000000 0.000000 -1.756585
v 0.878292 0.000000 -1.756585
v 1.756585 0.000000 -1.756585
v 2.634877 0.000000 -1.756585
v -2.634877 0.000000 -2.634877
v -1.756585 0.000000 -2.634877
v -0.878292 0.000000 -2.634877
v 0.000000 0.000000 -2.634877
v 0.878292 0.000000 -2.634877
v 1.756585 0.000000 -2.634877
v 2.634877 0.000000 -2.634877
vn -0.0000 1.0000 -0.0000
vn -0.0000 -1.0000 -0.0000
vn -0.0000 0.8277 -0.5612
vn -0.0000 0.8277 0.5612
vn 0.5612 0.8277 -0.0000
vn -0.5612 0.8277 -0.0000
vn -1.0000 -0.0000 -0.0000
vn 1.0000 -0.0000 -0.0000
vn -0.0000 -0.0000 -1.0000
vn -0.0000 -0.0000 1.0000
vt 0.012060 0.012060
vt 0.987940 0.012060
vt 0.012060 0.987940
vt 0.987940 0.987940
vt 0.000000 1.000000
vt 0.000000 0.000000
vt 1.000000 0.000000
vt 1.000000 1.000000
vt 0.000000 1.000000
vt 0.000000 0.000000
vt 1.000000 0.000000
vt 1.000000 1.000000
vt 0.006628 0.993372
vt 0.006628 0.006628
vt 0.993372 0.006628
vt 0.993372 0.993372
vt 0.006628 0.993372
vt 0.006628 0.006628
vt 0.993372 0.006628
vt 0.993372 0.993372
vt 0.012060 0.987940
vt 0.012060 0.012060
vt 0.987940 0.012060
vt 0.987940 0.987940
vt 0.012060 0.865955
vt 0.012060 0.743970
vt 0.012060 0.621985
vt 0.012060 0.500000
vt 0.012060 0.378015
vt 0.012060 0.256030
vt 0.012060 0.134045
vt 0.134045 0.012060
vt 0.256030 0.012060
vt 0.378015 0.012060
vt 0.500000 0.012060
vt 0.621985 0.012060
vt 0.743970 0.012060
vt 0.865955 0.012060
vt 0.987940 0.134045
vt 0.987940 0.256030
vt 0.987940 0.378015
vt 0.987940 0.500000
vt 0.987940 0.621985
vt 0.987940 0.743970
vt 0.987940 0.865955
vt 0.865955 0.987940
vt 0.743970 0.987940
vt 0.621985 0.987940
vt 0.500000 0.987940
vt 0.378015 0.987940
vt 0.256030 0.987940
vt 0.134045 0.987940
vt 0.134045 0.134045
vt 0.256030 0.134045
vt 0.378015 0.134045
vt 0.500000 0.134045
vt 0.621985 0.134045
vt 0.743970 0.134045
vt 0.865955 0.134045
vt 0.134045 0.256030
vt 0.256030 0.256030
vt 0.378015 0.256030
vt 0.500000 0.256030
vt 0.621985 0.256030
vt 0.743970 0.256030
vt 0.865955 0.256030
vt 0.134045 0.378015
vt 0.256030 0.378015
vt 0.378015 0.378015
vt 0.500000 0.378015
vt 0.621985 0.378015
vt 0.743970 0.378015
vt 0.865955 0.378015
vt 0.134045 0.500000
vt 0.256030 0.500000
vt 0.378015 0.500000
vt 0.500000 0.500000
vt 0.621985 0.500000
vt 0.743970 0.500000
vt 0.865955 0.500000
vt 0.134045 0.621985
vt 0.256030 0.621985
vt 0.378015 0.621985
vt 0.500000 0.621985
vt 0.621985 0.621985
vt 0.743970 0.621985
vt 0.865955 0.621985
vt 0.134045 0.743970
vt 0.256030 0.743970
vt 0.378015 0.743970
vt 0.500000 0.743970
vt 0.621985 0.743970
vt 0.743970 0.743970
vt 0.865955 0.743970
vt 0.134045 0.865955
vt 0.256030 0.865955
vt 0.378015 0.865955
vt 0.500000 0.865955
vt 0.621985 0.865955
vt 0.743970 0.865955
vt 0.865955 0.865955
s 0
usemtl Material.001
f 101/101/1 45/45/1 4/4/1 46/46/1
f 6/6/2 5/5/2 8/8/2 7/7/2
f 12/12/3 8/8/3 5/5/3 9/9/3
f 10/10/4 6/6/4 7/7/4 11/11/4
f 11/11/5 7/7/5 8/8/5 12/12/5
f 9/9/6 5/5/6 6/6/6 10/10/6
f 13/13/1 9/9/1 10/10/1 14/14/1
f 14/14/1 10/10/1 11/11/1 15/15/1
f 15/15/1 11/11/1 12/12/1 16/16/1
f 16/16/1 12/12/1 9/9/1 13/13/1
f 16/16/7 20/20/7 19/19/7 15/15/7
f 3/3/7 21/21/7 22/22/7 1/1/7 31/31/7 30/30/7 29/29/7 28/28/7 27/27/7 26/26/7 25/25/7
f 2/2/8 23/23/8 24/24/8 4/4/8 45/45/8 44/44/8 43/43/8 42/42/8 41/41/8 40/40/8 39/39/8
f 15/15/9 19/19/9 18/18/9 14/14/9
f 21/21/1 17/17/1 18/18/1 22/22/1
f 22/22/1 18/18/1 19/19/1 23/23/1
f 23/23/1 19/19/1 20/20/1 24/24/1
f 24/24/1 20/20/1 17/17/1 21/21/1
f 4/4/9 24/24/9 21/21/9 3/3/9 52/52/9 51/51/9 50/50/9 49/49/9 48/48/9 47/47/9 46/46/9
f 14/14/8 18/18/8 17/17/8 13/13/8
f 1/1/10 22/22/10 23/23/10 2/2/10 38/38/10 37/37/10 36/36/10 35/35/10 34/34/10 33/33/10 32/32/10
f 13/13/10 17/17/10 20/20/10 16/16/10
f 38/38/1 2/2/1 39/39/1 59/59/1
f 59/59/1 39/39/1 40/40/1 66/66/1
f 66/66/1 40/40/1 41/41/1 73/73/1
f 73/73/1 41/41/1 42/42/1 80/80/1
f 80/80/1 42/42/1 43/43/1 87/87/1
f 87/87/1 43/43/1 44/44/1 94/94/1
f 94/94/1 44/44/1 45/45/1 101/101/1
f 1/1/1 32/32/1 53/53/1 31/31/1
f 32/32/1 33/33/1 54/54/1 53/53/1
f 33/33/1 34/34/1 55/55/1 54/54/1
f 34/34/1 35/35/1 56/56/1 55/55/1
f 35/35/1 36/36/1 57/57/1 56/56/1
f 36/36/1 37/37/1 58/58/1 57/57/1
f 37/37/1 38/38/1 59/59/1 58/58/1
f 31/31/1 53/53/1 60/60/1 30/30/1
f 53/53/1 54/54/1 61/61/1 60/60/1
f 54/54/1 55/55/1 62/62/1 61/61/1
f 55/55/1 56/56/1 63/63/1 62/62/1
f 56/56/1 57/57/1 64/64/1 63/63/1
f 57/57/1 58/58/1 65/65/1 64/64/1
f 58/58/1 59/59/1 66/66/1 65/65/1
f 30/30/1 60/60/1 67/67/1 29/29/1
f 60/60/1 61/61/1 68/68/1 67/67/1
f 61/61/1 62/62/1 69/69/1 68/68/1
f 62/62/1 63/63/1 70/70/1 69/69/1
f 63/63/1 64/64/1 71/71/1 70/70/1
f 64/64/1 65/65/1 72/72/1 71/71/1
f 65/65/1 66/66/1 73/73/1 72/72/1
f 29/29/1 67/67/1 74/74/1 28/28/1
f 67/67/1 68/68/1 75/75/1 74/74/1
f 68/68/1 69/69/1 76/76/1 75/75/1
f 69/69/1 70/70/1 77/77/1 76/76/1
f 70/70/1 71/71/1 78/78/1 77/77/1
f 71/71/1 72/72/1 79/79/1 78/78/1
f 72/72/1 73/73/1 80/80/1 79/79/1
f 28/28/1 74/74/1 81/81/1 27/27/1
f 74/74/1 75/75/1 82/82/1 81/81/1
f 75/75/1 76/76/1 83/83/1 82/82/1
f 76/76/1 77/77/1 84/84/1 83/83/1
f 77/77/1 78/78/1 85/85/1 84/84/1
f 78/78/1 79/79/1 86/86/1 85/85/1
f 79/79/1 80/80/1 87/87/1 86/86/1
f 27/27/1 81/81/1 88/88/1 26/26/1
f 81/81/1 82/82/1 89/89/1 88/88/1
f 82/82/1 83/83/1 90/90/1 89/89/1
f 83/83/1 84/84/1 91/91/1 90/90/1
f 84/84/1 85/85/1 92/92/1 91/91/1
f 85/85/1 86/86/1 93/93/1 92/92/1
f 86/86/1 87/87/1 94/94/1 93/93/1
f 26/26/1 88/88/1 95/95/1 25/25/1
f 88/88/1 89/89/1 96/96/1 95/95/1
f 89/89/1 90/90/1 97/97/1 96/96/1
f 90/90/1 91/91/1 98/98/1 97/97/1
f 91/91/1 92/92/1 99/99/1 98/98/1
f 92/92/1 93/93/1 100/100/1 99/99/1
f 93/93/1 94/94/1 101/101/1 100/100/1
f 25/25/1 95/95/1 52/52/1 3/3/1
f 95/95/1 96/96/1 51/51/1 52/52/1
f 96/96/1 97/97/1 50/50/1 51/51/1
f 97/97/1 98/98/1 49/49/1 50/50/1
f 98/98/1 99/99/1 48/48/1 49/49/1
f 99/99/1 100/100/1 47/47/1 48/48/1
f 100/100/1 101/101/1 46/46/1 47/47/1
